# xmcd
#
# Track frame offsets:
#	150
#	12750
#	30537
#	41237
#	55172
#	67137
#	82132
#	99590
#	112152
#	121780
#	136510
#	146957
#	157740
#	175182
#	189040
#
# Disc length: 2763 seconds
#
# Revision: 2
# Processed by: cddbd v1.5.2PL0 Copyright (c) Steve Scherf et al.
# Submitted via: EasyCDDAExtractor 11.1.0.1
#
DISCID=c60ac90f
DTITLE=Various Artist - The Immediate Blues Story Vol 2 - Dealing With The De
DTITLE=vil
DYEAR=1991
DGENRE=Blues
TTITLE0=John Mayall and The Bluesbreakers w/Eric Clapton - On Top of the World
TTITLE1=John Mayall and The Bluesbreakers w/Eric Clapton - Telephone Blues
TTITLE2=Tony T.S. McPhee - You Don't Love Me
TTITLE3=Tony T.S. McPhee - Ain't Gonna Cry No More
TTITLE4=Santa Barbara Machine Head - Rubber Monkey
TTITLE5=Santa Barbara Machine Head - Albert
TTITLE6=Albert Lee and Tony Colton - The Next Milestone
TTITLE7=Cyril Davies and The All Stars - Someday Baby
TTITLE8=Dharma Blues Band - Roll 'Em Pete
TTITLE9=Dharma Blues Band - Dealing With The Devil
TTITLE10=Eric Clapton - West Coast Idea
TTITLE11=All Stars Featuring Jeff Beck - Chuckles
TTITLE12=Savoy Brown Blues Band - Cold Blooded Woman
TTITLE13=Savoy Brown Blues Band - I Tried
TTITLE14=Savoy Brown Blues Band - True Blue
EXTD=
EXTT0=
EXTT1=
EXTT2=
EXTT3=
EXTT4=
EXTT5=
EXTT6=
EXTT7=
EXTT8=
EXTT9=
EXTT10=
EXTT11=
EXTT12=
EXTT13=
EXTT14=
PLAYORDER=
